<?xml version="1.0" encoding="UTF-8" standalone="no"?>
<!DOCTYPE svg PUBLIC "-//W3C//DTD SVG 1.1//EN"
 "http://www.w3.org/Graphics/SVG/1.1/DTD/svg11.dtd">
<!-- Generated by graphviz version 15.0.0 (20260523.1842)
 -->
<!-- Pages: 1 -->
<svg width="374pt" height="1149pt"
 viewBox="0.00 0.00 374.00 1149.00" xmlns="http://www.w3.org/2000/svg" xmlns:xlink="http://www.w3.org/1999/xlink">
<g id="graph0" class="graph" transform="scale(1 1) rotate(0) translate(43.2 1105.36)">
<polygon fill="white" stroke="none" points="-43.2,43.2 -43.2,-1105.36 331.22,-1105.36 331.22,43.2 -43.2,43.2"/>
<text xml:space="preserve" text-anchor="middle" x="144.01" y="-1044.86" font-family="Helvetica,sans-Serif" font-size="14.00">Recursive Factorial</text>
<!-- st -->
<g id="node1" class="node">
<title>st</title>
<ellipse fill="#cfd8dc" stroke="black" cx="169.32" cy="-1006.46" rx="52.08" ry="31.95"/>
<text xml:space="preserve" text-anchor="middle" x="169.32" y="-1002.76" font-family="Helvetica,sans-Serif" font-size="11.00" fill="#212121">Start</text>
</g>
<!-- inp -->
<g id="node2" class="node">
<title>inp</title>
<polygon fill="#f5f5f5" stroke="black" points="258.12,-893.51 116.87,-893.51 80.53,-803.15 221.78,-803.15 258.12,-893.51"/>
<text xml:space="preserve" text-anchor="middle" x="169.32" y="-844.63" font-family="Helvetica,sans-Serif" font-size="11.00" fill="#212121">Read n</text>
</g>
<!-- st&#45;&gt;inp -->
<g id="edge1" class="edge">
<title>st&#45;&gt;inp</title>
<path fill="none" stroke="#78909c" d="M169.32,-974.24C169.32,-954.53 169.32,-928.48 169.32,-905.28"/>
<polygon fill="#78909c" stroke="#78909c" points="172.83,-905.32 169.33,-895.32 165.83,-905.32 172.83,-905.32"/>
</g>
<!-- chk -->
<g id="node3" class="node">
<title>chk</title>
<polygon fill="#eceff1" stroke="black" points="169.32,-722.15 88.17,-676.97 169.32,-631.79 250.47,-676.97 169.32,-722.15"/>
<text xml:space="preserve" text-anchor="middle" x="169.32" y="-673.27" font-family="Helvetica,sans-Serif" font-size="11.00" fill="#212121">n &gt; 1?</text>
</g>
<!-- inp&#45;&gt;chk -->
<g id="edge2" class="edge">
<title>inp&#45;&gt;chk</title>
<path fill="none" stroke="#78909c" d="M169.32,-802.84C169.32,-781.72 169.32,-756.27 169.32,-733.87"/>
<polygon fill="#78909c" stroke="#78909c" points="172.83,-733.98 169.33,-723.98 165.83,-733.98 172.83,-733.98"/>
</g>
<!-- rec -->
<g id="node4" class="node">
<title>rec</title>
<path fill="#eceff1" stroke="black" d="M144.9,-535.79C144.9,-535.79 51.75,-535.79 51.75,-535.79 45.75,-535.79 39.75,-529.79 39.75,-523.79 39.75,-523.79 39.75,-502.61 39.75,-502.61 39.75,-496.61 45.75,-490.61 51.75,-490.61 51.75,-490.61 144.9,-490.61 144.9,-490.61 150.9,-490.61 156.9,-496.61 156.9,-502.61 156.9,-502.61 156.9,-523.79 156.9,-523.79 156.9,-529.79 150.9,-535.79 144.9,-535.79"/>
<path fill="none" stroke="black" d="M148.9,-539.79C148.9,-539.79 47.75,-539.79 47.75,-539.79 41.75,-539.79 35.75,-533.79 35.75,-527.79 35.75,-527.79 35.75,-498.61 35.75,-498.61 35.75,-492.61 41.75,-486.61 47.75,-486.61 47.75,-486.61 148.9,-486.61 148.9,-486.61 154.9,-486.61 160.9,-492.61 160.9,-498.61 160.9,-498.61 160.9,-527.79 160.9,-527.79 160.9,-533.79 154.9,-539.79 148.9,-539.79"/>
<text xml:space="preserve" text-anchor="middle" x="98.32" y="-509.5" font-family="Helvetica,sans-Serif" font-size="11.00" fill="#212121">factorial(n &#45; 1)</text>
</g>
<!-- chk&#45;&gt;rec -->
<g id="edge3" class="edge">
<title>chk&#45;&gt;rec</title>
<path fill="none" stroke="#78909c" d="M153.57,-640.07C141.86,-613.4 125.96,-577.16 114.22,-550.42"/>
<polygon fill="#78909c" stroke="#78909c" points="117.46,-549.09 110.23,-541.34 111.05,-551.9 117.46,-549.09"/>
<text xml:space="preserve" text-anchor="middle" x="142.57" y="-582.29" font-family="Helvetica,sans-Serif" font-size="10.00"> Yes </text>
</g>
<!-- base -->
<g id="node6" class="node">
<title>base</title>
<path fill="#f5f5f5" stroke="black" d="M276.02,-446.61C276.02,-446.61 204.62,-446.61 204.62,-446.61 198.62,-446.61 192.62,-440.61 192.62,-434.61 192.62,-434.61 192.62,-413.43 192.62,-413.43 192.62,-407.43 198.62,-401.43 204.62,-401.43 204.62,-401.43 276.02,-401.43 276.02,-401.43 282.02,-401.43 288.02,-407.43 288.02,-413.43 288.02,-413.43 288.02,-434.61 288.02,-434.61 288.02,-440.61 282.02,-446.61 276.02,-446.61"/>
<text xml:space="preserve" text-anchor="middle" x="240.32" y="-420.32" font-family="Helvetica,sans-Serif" font-size="11.00" fill="#212121">result = 1</text>
</g>
<!-- chk&#45;&gt;base -->
<g id="edge4" class="edge">
<title>chk&#45;&gt;base</title>
<path fill="none" stroke="#78909c" d="M180.26,-637.31C194.18,-588.14 217.96,-504.06 231.04,-457.85"/>
<polygon fill="#78909c" stroke="#78909c" points="234.35,-458.99 233.71,-448.42 227.62,-457.09 234.35,-458.99"/>
<text xml:space="preserve" text-anchor="middle" x="205.16" y="-582.29" font-family="Helvetica,sans-Serif" font-size="10.00"> No </text>
</g>
<!-- mul -->
<g id="node5" class="node">
<title>mul</title>
<path fill="#f5f5f5" stroke="black" d="M154.65,-361.43C154.65,-361.43 12,-361.43 12,-361.43 6,-361.43 0,-355.43 0,-349.43 0,-349.43 0,-328.25 0,-328.25 0,-322.25 6,-316.25 12,-316.25 12,-316.25 154.65,-316.25 154.65,-316.25 160.65,-316.25 166.65,-322.25 166.65,-328.25 166.65,-328.25 166.65,-349.43 166.65,-349.43 166.65,-355.43 160.65,-361.43 154.65,-361.43"/>
<text xml:space="preserve" text-anchor="middle" x="83.32" y="-335.14" font-family="Helvetica,sans-Serif" font-size="11.00" fill="#212121">result = n * factorial(n&#45;1)</text>
</g>
<!-- rec&#45;&gt;mul -->
<g id="edge5" class="edge">
<title>rec&#45;&gt;mul</title>
<path fill="none" stroke="#78909c" d="M96.08,-486.4C93.45,-456.21 89.09,-406.14 86.22,-373.07"/>
<polygon fill="#78909c" stroke="#78909c" points="89.71,-372.89 85.36,-363.23 82.74,-373.49 89.71,-372.89"/>
</g>
<!-- out -->
<g id="node7" class="node">
<title>out</title>
<polygon fill="#f5f5f5" stroke="black" points="279.12,-235.25 93.33,-235.25 45.53,-144.89 231.32,-144.89 279.12,-235.25"/>
<text xml:space="preserve" text-anchor="middle" x="162.32" y="-186.37" font-family="Helvetica,sans-Serif" font-size="11.00" fill="#212121">Return result</text>
</g>
<!-- mul&#45;&gt;out -->
<g id="edge6" class="edge">
<title>mul&#45;&gt;out</title>
<path fill="none" stroke="#78909c" d="M95.15,-315.87C105.14,-297.32 119.87,-269.95 132.99,-245.57"/>
<polygon fill="#78909c" stroke="#78909c" points="135.94,-247.49 137.59,-237.02 129.77,-244.17 135.94,-247.49"/>
</g>
<!-- base&#45;&gt;out -->
<g id="edge7" class="edge">
<title>base&#45;&gt;out</title>
<path fill="none" stroke="#78909c" d="M232.99,-401.2C221.18,-366.08 197.59,-295.94 180.92,-246.37"/>
<polygon fill="#78909c" stroke="#78909c" points="184.25,-245.3 177.75,-236.94 177.62,-247.53 184.25,-245.3"/>
</g>
<!-- en -->
<g id="node8" class="node">
<title>en</title>
<ellipse fill="#455a64" stroke="black" cx="162.32" cy="-31.95" rx="49.43" ry="31.95"/>
<text xml:space="preserve" text-anchor="middle" x="162.32" y="-28.25" font-family="Helvetica,sans-Serif" font-size="11.00" fill="white">End</text>
</g>
<!-- out&#45;&gt;en -->
<g id="edge8" class="edge">
<title>out&#45;&gt;en</title>
<path fill="none" stroke="#78909c" d="M162.32,-144.75C162.32,-123 162.32,-96.91 162.32,-75.41"/>
<polygon fill="#78909c" stroke="#78909c" points="165.83,-75.51 162.33,-65.51 158.83,-75.51 165.83,-75.51"/>
</g>
</g>
</svg>
