<?xml version="1.0" encoding="UTF-8" standalone="no"?>
<!DOCTYPE svg PUBLIC "-//W3C//DTD SVG 1.1//EN"
 "http://www.w3.org/Graphics/SVG/1.1/DTD/svg11.dtd">
<!-- Generated by graphviz version 15.0.0 (20260523.1842)
 -->
<!-- Pages: 1 -->
<svg width="396pt" height="1233pt"
 viewBox="0.00 0.00 396.00 1233.00" xmlns="http://www.w3.org/2000/svg" xmlns:xlink="http://www.w3.org/1999/xlink">
<g id="graph0" class="graph" transform="scale(1 1) rotate(0) translate(43.2 1189.36)">
<polygon fill="white" stroke="none" points="-43.2,43.2 -43.2,-1189.36 353.22,-1189.36 353.22,43.2 -43.2,43.2"/>
<text xml:space="preserve" text-anchor="middle" x="155.01" y="-1128.86" font-family="Helvetica,sans-Serif" font-size="14.00">Recursive Factorial</text>
<!-- st -->
<g id="node1" class="node">
<title>st</title>
<ellipse fill="white" stroke="black" stroke-width="2" cx="181.32" cy="-1090.46" rx="52.08" ry="31.95"/>
<text xml:space="preserve" text-anchor="middle" x="181.32" y="-1086.76" font-family="Helvetica,sans-Serif" font-size="11.00">Start</text>
</g>
<!-- inp -->
<g id="node2" class="node">
<title>inp</title>
<polygon fill="white" stroke="black" stroke-width="2" points="270.12,-963.51 128.87,-963.51 92.53,-873.15 233.78,-873.15 270.12,-963.51"/>
<text xml:space="preserve" text-anchor="middle" x="181.32" y="-914.63" font-family="Helvetica,sans-Serif" font-size="11.00">Read n</text>
</g>
<!-- st&#45;&gt;inp -->
<g id="edge1" class="edge">
<title>st&#45;&gt;inp</title>
<path fill="none" stroke="black" stroke-width="1.5" d="M181.32,-1057.86C181.32,-1035.03 181.32,-1003.55 181.32,-976.37"/>
<polygon fill="black" stroke="black" stroke-width="1.5" points="184.83,-976.51 181.33,-966.51 177.83,-976.51 184.83,-976.51"/>
</g>
<!-- chk -->
<g id="node3" class="node">
<title>chk</title>
<polygon fill="white" stroke="black" stroke-width="2" points="181.32,-778.15 100.17,-732.97 181.32,-687.79 262.48,-732.97 181.32,-778.15"/>
<text xml:space="preserve" text-anchor="middle" x="181.32" y="-729.27" font-family="Helvetica,sans-Serif" font-size="11.00">n &gt; 1?</text>
</g>
<!-- inp&#45;&gt;chk -->
<g id="edge2" class="edge">
<title>inp&#45;&gt;chk</title>
<path fill="none" stroke="black" stroke-width="1.5" d="M181.32,-872.48C181.32,-847.95 181.32,-817.31 181.32,-791.09"/>
<polygon fill="black" stroke="black" stroke-width="1.5" points="184.83,-791.27 181.33,-781.27 177.83,-791.27 184.83,-791.27"/>
</g>
<!-- rec -->
<g id="node4" class="node">
<title>rec</title>
<polygon fill="white" stroke="black" stroke-width="2" points="156.9,-577.79 39.75,-577.79 39.75,-532.61 156.9,-532.61 156.9,-577.79"/>
<polygon fill="none" stroke="black" stroke-width="2" points="160.9,-581.79 35.75,-581.79 35.75,-528.61 160.9,-528.61 160.9,-581.79"/>
<text xml:space="preserve" text-anchor="middle" x="98.32" y="-551.5" font-family="Helvetica,sans-Serif" font-size="11.00">factorial(n &#45; 1)</text>
</g>
<!-- chk&#45;&gt;rec -->
<g id="edge3" class="edge">
<title>chk&#45;&gt;rec</title>
<path fill="none" stroke="black" stroke-width="1.5" d="M164.53,-696.4C150.42,-666.52 130.31,-623.94 115.96,-593.56"/>
<polygon fill="black" stroke="black" stroke-width="1.5" points="119.18,-592.17 111.74,-584.62 112.85,-595.16 119.18,-592.17"/>
<text xml:space="preserve" text-anchor="middle" x="148.21" y="-631.29" font-family="Helvetica,sans-Serif" font-size="10.00"> Yes </text>
</g>
<!-- base -->
<g id="node6" class="node">
<title>base</title>
<polygon fill="white" stroke="black" stroke-width="2" points="310.02,-481.61 214.62,-481.61 214.62,-436.43 310.02,-436.43 310.02,-481.61"/>
<text xml:space="preserve" text-anchor="middle" x="262.32" y="-455.32" font-family="Helvetica,sans-Serif" font-size="11.00">result = 1</text>
</g>
<!-- chk&#45;&gt;base -->
<g id="edge4" class="edge">
<title>chk&#45;&gt;base</title>
<path fill="none" stroke="black" stroke-width="1.5" d="M192.84,-693.3C208.74,-639.92 237.15,-544.54 252.25,-493.86"/>
<polygon fill="black" stroke="black" stroke-width="1.5" points="255.55,-495.04 255.05,-484.45 248.84,-493.04 255.55,-495.04"/>
<text xml:space="preserve" text-anchor="middle" x="220.89" y="-631.29" font-family="Helvetica,sans-Serif" font-size="10.00"> No </text>
</g>
<!-- mul -->
<g id="node5" class="node">
<title>mul</title>
<polygon fill="white" stroke="black" stroke-width="2" points="166.65,-389.43 0,-389.43 0,-344.25 166.65,-344.25 166.65,-389.43"/>
<text xml:space="preserve" text-anchor="middle" x="83.32" y="-363.14" font-family="Helvetica,sans-Serif" font-size="11.00">result = n * factorial(n&#45;1)</text>
</g>
<!-- rec&#45;&gt;mul -->
<g id="edge5" class="edge">
<title>rec&#45;&gt;mul</title>
<path fill="none" stroke="black" stroke-width="1.5" d="M96.21,-527.9C93.56,-494.96 89.01,-438.46 86.09,-402.15"/>
<polygon fill="black" stroke="black" stroke-width="1.5" points="89.6,-402.17 85.31,-392.49 82.62,-402.74 89.6,-402.17"/>
</g>
<!-- out -->
<g id="node7" class="node">
<title>out</title>
<polygon fill="white" stroke="black" stroke-width="2" points="290.12,-249.25 104.33,-249.25 56.53,-158.89 242.32,-158.89 290.12,-249.25"/>
<text xml:space="preserve" text-anchor="middle" x="173.32" y="-200.37" font-family="Helvetica,sans-Serif" font-size="11.00">Return result</text>
</g>
<!-- mul&#45;&gt;out -->
<g id="edge6" class="edge">
<title>mul&#45;&gt;out</title>
<path fill="none" stroke="black" stroke-width="1.5" d="M95.84,-343.49C107.79,-322.14 126.28,-289.11 142.2,-260.67"/>
<polygon fill="black" stroke="black" stroke-width="1.5" points="145.22,-262.44 147.05,-252.01 139.11,-259.02 145.22,-262.44"/>
</g>
<!-- base&#45;&gt;out -->
<g id="edge7" class="edge">
<title>base&#45;&gt;out</title>
<path fill="none" stroke="black" stroke-width="1.5" d="M254.43,-435.58C240.76,-396.75 212.33,-315.94 193.03,-261.09"/>
<polygon fill="black" stroke="black" stroke-width="1.5" points="196.44,-260.22 189.82,-251.95 189.83,-262.54 196.44,-260.22"/>
</g>
<!-- en -->
<g id="node8" class="node">
<title>en</title>
<ellipse fill="black" stroke="black" stroke-width="2" cx="173.32" cy="-31.95" rx="49.43" ry="31.95"/>
<text xml:space="preserve" text-anchor="middle" x="173.32" y="-28.25" font-family="Helvetica,sans-Serif" font-size="11.00" fill="white">End</text>
</g>
<!-- out&#45;&gt;en -->
<g id="edge8" class="edge">
<title>out&#45;&gt;en</title>
<path fill="none" stroke="black" stroke-width="1.5" d="M173.32,-157.93C173.32,-132.83 173.32,-101.74 173.32,-76.85"/>
<polygon fill="black" stroke="black" stroke-width="1.5" points="176.83,-77.09 173.33,-67.09 169.83,-77.09 176.83,-77.09"/>
</g>
</g>
</svg>
