<?xml version="1.0" encoding="UTF-8" standalone="no"?>
<!DOCTYPE svg PUBLIC "-//W3C//DTD SVG 1.1//EN"
 "http://www.w3.org/Graphics/SVG/1.1/DTD/svg11.dtd">
<!-- Generated by graphviz version 15.0.0 (20260523.1842)
 -->
<!-- Pages: 1 -->
<svg width="424pt" height="1293pt"
 viewBox="0.00 0.00 424.00 1293.00" xmlns="http://www.w3.org/2000/svg" xmlns:xlink="http://www.w3.org/1999/xlink">
<g id="graph0" class="graph" transform="scale(1 1) rotate(0) translate(43.2 1249.33)">
<polygon fill="white" stroke="none" points="-43.2,43.2 -43.2,-1249.33 380.6,-1249.33 380.6,43.2 -43.2,43.2"/>
<text xml:space="preserve" text-anchor="middle" x="168.7" y="-1188.83" font-family="Helvetica,sans-Serif" font-size="14.00">Recursive Factorial</text>
<!-- st -->
<g id="node1" class="node">
<title>st</title>
<ellipse fill="#27ae60" stroke="black" cx="195.8" cy="-1146.85" rx="58.23" ry="35.53"/>
<text xml:space="preserve" text-anchor="middle" x="195.8" y="-1142.57" font-family="Helvetica,sans-Serif" font-size="12.00" fill="white">Start</text>
</g>
<!-- inp -->
<g id="node2" class="node">
<title>inp</title>
<polygon fill="#16a085" stroke="black" points="295.95,-1016.31 136.63,-1016.31 95.65,-915.81 254.97,-915.81 295.95,-1016.31"/>
<text xml:space="preserve" text-anchor="middle" x="195.8" y="-961.79" font-family="Helvetica,sans-Serif" font-size="12.00" fill="white">Read n</text>
</g>
<!-- st&#45;&gt;inp -->
<g id="edge1" class="edge">
<title>st&#45;&gt;inp</title>
<path fill="none" stroke="black" d="M195.8,-1110.95C195.8,-1087.37 195.8,-1055.61 195.8,-1027.93"/>
<polygon fill="black" stroke="black" points="199.3,-1028.27 195.8,-1018.27 192.3,-1028.27 199.3,-1028.27"/>
</g>
<!-- chk -->
<g id="node3" class="node">
<title>chk</title>
<polygon fill="#e67e22" stroke="black" points="195.8,-820.81 105.2,-770.56 195.8,-720.31 286.4,-770.56 195.8,-820.81"/>
<text xml:space="preserve" text-anchor="middle" x="195.8" y="-766.29" font-family="Helvetica,sans-Serif" font-size="12.00" fill="white">n &gt; 1?</text>
</g>
<!-- inp&#45;&gt;chk -->
<g id="edge2" class="edge">
<title>inp&#45;&gt;chk</title>
<path fill="none" stroke="black" d="M195.8,-915.48C195.8,-890.21 195.8,-859.24 195.8,-832.52"/>
<polygon fill="black" stroke="black" points="199.3,-832.86 195.8,-822.86 192.3,-832.86 199.3,-832.86"/>
</g>
<!-- rec -->
<g id="node4" class="node">
<title>rec</title>
<path fill="#8e44ad" stroke="black" d="M161.98,-610.31C161.98,-610.31 55.62,-610.31 55.62,-610.31 49.62,-610.31 43.63,-604.31 43.63,-598.31 43.63,-598.31 43.63,-572.06 43.63,-572.06 43.63,-566.06 49.63,-560.06 55.63,-560.06 55.63,-560.06 161.98,-560.06 161.98,-560.06 167.98,-560.06 173.98,-566.06 173.98,-572.06 173.98,-572.06 173.98,-598.31 173.98,-598.31 173.98,-604.31 167.98,-610.31 161.98,-610.31"/>
<path fill="none" stroke="black" d="M165.98,-614.31C165.98,-614.31 51.62,-614.31 51.62,-614.31 45.62,-614.31 39.63,-608.31 39.63,-602.31 39.63,-602.31 39.63,-568.06 39.63,-568.06 39.63,-562.06 45.63,-556.06 51.63,-556.06 51.63,-556.06 165.98,-556.06 165.98,-556.06 171.98,-556.06 177.98,-562.06 177.98,-568.06 177.98,-568.06 177.98,-602.31 177.98,-602.31 177.98,-608.31 171.98,-614.31 165.98,-614.31"/>
<text xml:space="preserve" text-anchor="middle" x="108.8" y="-580.91" font-family="Helvetica,sans-Serif" font-size="12.00" fill="white">factorial(n &#45; 1)</text>
</g>
<!-- chk&#45;&gt;rec -->
<g id="edge3" class="edge">
<title>chk&#45;&gt;rec</title>
<path fill="none" stroke="black" d="M177.14,-730.23C162.4,-699.16 141.94,-656.04 127.25,-625.09"/>
<polygon fill="black" stroke="black" points="130.42,-623.59 122.97,-616.05 124.09,-626.59 130.42,-623.59"/>
<text xml:space="preserve" text-anchor="middle" x="160.57" y="-663.81" font-family="Helvetica,sans-Serif" font-size="10.00"> Yes </text>
</g>
<!-- base -->
<g id="node6" class="node">
<title>base</title>
<path fill="#2980b9" stroke="black" d="M325.4,-509.06C325.4,-509.06 234.2,-509.06 234.2,-509.06 228.2,-509.06 222.2,-503.06 222.2,-497.06 222.2,-497.06 222.2,-470.81 222.2,-470.81 222.2,-464.81 228.2,-458.81 234.2,-458.81 234.2,-458.81 325.4,-458.81 325.4,-458.81 331.4,-458.81 337.4,-464.81 337.4,-470.81 337.4,-470.81 337.4,-497.06 337.4,-497.06 337.4,-503.06 331.4,-509.06 325.4,-509.06"/>
<text xml:space="preserve" text-anchor="middle" x="279.8" y="-479.66" font-family="Helvetica,sans-Serif" font-size="12.00" fill="white">result = 1</text>
</g>
<!-- chk&#45;&gt;base -->
<g id="edge4" class="edge">
<title>chk&#45;&gt;base</title>
<path fill="none" stroke="black" d="M208.38,-726.95C225,-670.61 254,-572.35 269.44,-520.05"/>
<polygon fill="black" stroke="black" points="272.7,-521.35 272.18,-510.76 265.99,-519.36 272.7,-521.35"/>
<text xml:space="preserve" text-anchor="middle" x="236.48" y="-663.81" font-family="Helvetica,sans-Serif" font-size="10.00"> No </text>
</g>
<!-- mul -->
<g id="node5" class="node">
<title>mul</title>
<path fill="#2980b9" stroke="black" d="M171.6,-411.81C171.6,-411.81 12,-411.81 12,-411.81 6,-411.81 0,-405.81 0,-399.81 0,-399.81 0,-373.56 0,-373.56 0,-367.56 6,-361.56 12,-361.56 12,-361.56 171.6,-361.56 171.6,-361.56 177.6,-361.56 183.6,-367.56 183.6,-373.56 183.6,-373.56 183.6,-399.81 183.6,-399.81 183.6,-405.81 177.6,-411.81 171.6,-411.81"/>
<text xml:space="preserve" text-anchor="middle" x="91.8" y="-382.41" font-family="Helvetica,sans-Serif" font-size="12.00" fill="white">result = n * factorial(n&#45;1)</text>
</g>
<!-- rec&#45;&gt;mul -->
<g id="edge5" class="edge">
<title>rec&#45;&gt;mul</title>
<path fill="none" stroke="black" d="M106.33,-555.62C103.3,-520.6 98.16,-461.26 94.88,-423.3"/>
<polygon fill="black" stroke="black" points="98.41,-423.43 94.06,-413.77 91.43,-424.03 98.41,-423.43"/>
</g>
<!-- out -->
<g id="node7" class="node">
<title>out</title>
<polygon fill="#16a085" stroke="black" points="317.28,-266.56 109.72,-266.56 56.32,-166.06 263.88,-166.06 317.28,-266.56"/>
<text xml:space="preserve" text-anchor="middle" x="186.8" y="-212.04" font-family="Helvetica,sans-Serif" font-size="12.00" fill="white">Return result</text>
</g>
<!-- mul&#45;&gt;out -->
<g id="edge6" class="edge">
<title>mul&#45;&gt;out</title>
<path fill="none" stroke="black" d="M105.61,-361.21C118.1,-339.08 136.98,-305.62 153.39,-276.53"/>
<polygon fill="black" stroke="black" points="156.24,-278.61 158.1,-268.18 150.14,-275.17 156.24,-278.61"/>
</g>
<!-- base&#45;&gt;out -->
<g id="edge7" class="edge">
<title>base&#45;&gt;out</title>
<path fill="none" stroke="black" d="M271.22,-458.43C256.94,-417.64 227.9,-334.71 207.9,-277.59"/>
<polygon fill="black" stroke="black" points="211.26,-276.6 204.66,-268.32 204.66,-278.91 211.26,-276.6"/>
</g>
<!-- en -->
<g id="node8" class="node">
<title>en</title>
<ellipse fill="#c0392b" stroke="black" cx="186.8" cy="-35.53" rx="57.6" ry="35.53"/>
<text xml:space="preserve" text-anchor="middle" x="186.8" y="-31.26" font-family="Helvetica,sans-Serif" font-size="12.00" fill="white">End</text>
</g>
<!-- out&#45;&gt;en -->
<g id="edge8" class="edge">
<title>out&#45;&gt;en</title>
<path fill="none" stroke="black" d="M186.8,-165.99C186.8,-140 186.8,-108.3 186.8,-82.78"/>
<polygon fill="black" stroke="black" points="190.3,-83.05 186.8,-73.05 183.3,-83.05 190.3,-83.05"/>
</g>
</g>
</svg>
